<?xml version="1.0" standalone="no"?>
<!DOCTYPE svg PUBLIC "-//W3C//DTD SVG 20010904//EN"
 "http://www.w3.org/TR/2001/REC-SVG-20010904/DTD/svg10.dtd">
<svg version="1.0" xmlns="http://www.w3.org/2000/svg"
 width="512.000000pt" height="512.000000pt" viewBox="0 0 512.000000 512.000000"
 preserveAspectRatio="xMidYMid meet">

<g transform="translate(0.000000,512.000000) scale(0.100000,-0.100000)"
fill="#000000" stroke="none">
<path d="M687 4879 c-36 -21 -95 -167 -132 -324 -18 -80 -60 -404 -79 -615
-33 -355 -40 -530 -40 -960 0 -476 9 -643 60 -1035 13 -104 29 -224 34 -265
33 -265 137 -717 213 -927 66 -180 95 -239 188 -378 52 -79 84 -115 117 -136
68 -43 112 -36 112 18 0 31 -59 307 -115 543 -67 279 -83 358 -106 555 -18
153 -20 189 -10 237 17 79 55 118 116 118 57 0 83 -23 138 -125 112 -205 386
-620 537 -811 83 -105 275 -310 324 -345 46 -34 88 -37 117 -8 27 27 21 77
-15 124 -14 18 -56 88 -94 156 -142 255 -215 384 -222 394 -5 6 -46 82 -92
170 -172 325 -282 611 -339 876 -19 88 -23 136 -23 314 -1 194 1 214 20 256
12 25 38 58 58 74 48 36 131 43 396 31 343 -16 741 -12 834 7 147 31 215 82
202 151 -4 20 -15 40 -25 45 -11 7 -101 8 -240 3 -335 -11 -509 4 -746 64
-158 40 -241 69 -383 139 -295 144 -462 306 -566 554 -67 160 -98 283 -137
554 -11 83 -14 352 -4 454 6 58 4 72 -10 86 -18 19 -61 22 -88 6z"/>
<path d="M1185 4422 c-175 -89 -211 -111 -213 -131 -2 -13 0 -27 5 -32 4 -4
53 -17 108 -29 139 -29 133 -25 98 -63 -118 -125 -145 -298 -69 -452 42 -84
98 -140 185 -182 49 -25 67 -28 151 -28 87 0 101 3 160 32 214 105 291 349
173 550 -27 46 -90 108 -129 125 -13 6 -24 14 -24 17 0 6 184 101 194 101 2 0
7 -33 11 -72 3 -40 11 -79 17 -85 15 -18 57 -16 65 3 8 22 -18 221 -32 241 -8
11 -83 31 -235 64 -123 27 -231 49 -240 49 -8 -1 -109 -49 -225 -108z"/>
<path d="M3135 4132 c-163 -83 -211 -112 -213 -128 -2 -11 3 -25 10 -31 7 -6
117 -34 243 -63 l230 -53 176 92 c97 50 181 91 187 91 6 0 13 -26 17 -57 11
-93 17 -108 51 -108 23 0 30 5 32 24 5 32 -17 214 -28 231 -8 13 -424 109
-470 109 -14 0 -119 -48 -235 -107z"/>
</g>
</svg>
